<?xml version="1.0" encoding="UTF-8" standalone="no"?>
<!-- Generator: Adobe Illustrator 16.0.0, SVG Export Plug-In . SVG Version: 6.00 Build 0)  -->

<svg
   xmlns:dc="http://purl.org/dc/elements/1.1/"
   xmlns:cc="http://creativecommons.org/ns#"
   xmlns:rdf="http://www.w3.org/1999/02/22-rdf-syntax-ns#"
   xmlns:svg="http://www.w3.org/2000/svg"
   xmlns="http://www.w3.org/2000/svg"
   xmlns:sodipodi="http://sodipodi.sourceforge.net/DTD/sodipodi-0.dtd"
   xmlns:inkscape="http://www.inkscape.org/namespaces/inkscape"
   version="1.1"
   id="Layer_1"
   x="0px"
   y="0px"
   width="100px"
   height="87.978px"
   viewBox="0 0 100 87.978"
   enable-background="new 0 0 100 87.978"
   xml:space="preserve"
   inkscape:version="0.48.4 r9939"
   sodipodi:docname="home.svg"><metadata
     id="metadata9"><rdf:RDF><cc:Work
         rdf:about=""><dc:format>image/svg+xml</dc:format><dc:type
           rdf:resource="http://purl.org/dc/dcmitype/StillImage" /></cc:Work></rdf:RDF></metadata><defs
     id="defs7" /><sodipodi:namedview
     pagecolor="#ffffff"
     bordercolor="#666666"
     borderopacity="1"
     objecttolerance="10"
     gridtolerance="10"
     guidetolerance="10"
     inkscape:pageopacity="0"
     inkscape:pageshadow="2"
     inkscape:window-width="958"
     inkscape:window-height="1053"
     id="namedview5"
     showgrid="false"
     inkscape:zoom="2.61"
     inkscape:cx="-13.02682"
     inkscape:cy="43.988998"
     inkscape:window-x="0"
     inkscape:window-y="25"
     inkscape:window-maximized="0"
     inkscape:current-layer="Layer_1" /><path
     fill="#010101"
     d="M99.459,48.688L87.726,36.955V20.89c-0.003-1.028-0.837-1.861-1.865-1.865h-7.942  c-1.028,0.004-1.861,0.837-1.865,1.865v4.392L51.324,0.553c-0.402-0.405-0.968-0.604-1.535-0.542  c-0.422,0.049-0.814,0.24-1.113,0.542L0.542,48.688c-0.728,0.734-0.721,1.92,0.014,2.647c0.349,0.345,0.819,0.539,1.31,0.541h10.168  v34.236c0.003,1.028,0.836,1.861,1.865,1.865h12.666h17.418h12.035h17.869h12.215c1.028-0.004,1.861-0.837,1.865-1.865V51.876  h10.168c1.034-0.004,1.869-0.845,1.865-1.879C99.998,49.506,99.804,49.037,99.459,48.688z"
     id="path3"
     style="fill:#372b1a;fill-opacity:1" /></svg>