<?xml version="1.0" encoding="UTF-8" standalone="no"?>
<!-- Created with Inkscape (http://www.inkscape.org/) -->

<svg
   xmlns:dc="http://purl.org/dc/elements/1.1/"
   xmlns:cc="http://creativecommons.org/ns#"
   xmlns:rdf="http://www.w3.org/1999/02/22-rdf-syntax-ns#"
   xmlns:svg="http://www.w3.org/2000/svg"
   xmlns="http://www.w3.org/2000/svg"
   xmlns:sodipodi="http://sodipodi.sourceforge.net/DTD/sodipodi-0.dtd"
   xmlns:inkscape="http://www.inkscape.org/namespaces/inkscape"
   width="150"
   height="150"
   id="svg3137"
   version="1.1"
   inkscape:version="0.48.4 r9939"
   sodipodi:docname="teachers-mind.svg">
  <defs
     id="defs3139" />
  <sodipodi:namedview
     id="base"
     pagecolor="#ffffff"
     bordercolor="#666666"
     borderopacity="1.0"
     inkscape:pageopacity="0.0"
     inkscape:pageshadow="2"
     inkscape:zoom="1.4"
     inkscape:cx="-37.766188"
     inkscape:cy="-22.907213"
     inkscape:document-units="px"
     inkscape:current-layer="layer1"
     showgrid="false"
     fit-margin-top="0"
     fit-margin-left="0"
     fit-margin-right="0"
     fit-margin-bottom="0"
     inkscape:window-width="958"
     inkscape:window-height="1053"
     inkscape:window-x="0"
     inkscape:window-y="25"
     inkscape:window-maximized="0" />
  <metadata
     id="metadata3142">
    <rdf:RDF>
      <cc:Work
         rdf:about="">
        <dc:format>image/svg+xml</dc:format>
        <dc:type
           rdf:resource="http://purl.org/dc/dcmitype/StillImage" />
        <dc:title></dc:title>
      </cc:Work>
    </rdf:RDF>
  </metadata>
  <g
     inkscape:label="Layer 1"
     inkscape:groupmode="layer"
     id="layer1"
     transform="translate(-343.19439,-299.16731)">
    <g
       id="g3179"
       transform="matrix(1.1471918,0,0,1.1472001,-50.515401,-66.117481)">
      <g
         id="g3176">
        <path
           id="path3116"
           style="fill:#8eae41;fill-opacity:1;fill-rule:evenodd;stroke:none"
           d="m 368.58908,423.77368 c 21.95875,21.9575 58.00625,21.9575 79.96501,0 21.96,-21.95875 21.96,-58.00625 0,-79.96625 -21.95876,-21.9575 -58.00626,-21.9575 -79.96501,0 -21.95875,21.96 -21.95875,58.0075 0,79.96625 m 76.41626,-52.1273 c 0.255,16.69875 -9.90126,22.54875 -11.80751,32.79 -1.0725,5.75875 -0.65,12.02875 1.5675,18.41125 2.56625,7.385 -33.59375,8.38875 -34.3825,2.3125 -0.8025,-6.1775 -3.00625,-13.1225 -7.0575,-12.5075 -10.36375,1.5675 -19.21625,3.16875 -16.23625,-10.19875 -2.36625,0 -3.38125,-2.38125 -1.395,-3.6625 -2.03875,0.025 -2.4625,-1.99375 -1.07875,-3.3775 0,-2.00125 -7.8225,0.105 -3.83625,-6.8875 1.7725,-3.10875 5.09375,-7.5125 5.36625,-12.47875 0.1875,-3.41875 -2.25375,-14.40875 3.60375,-23.59 15.42875,-24.17875 64.71001,-16.585 65.25626,19.18875 m -82.73751,58.4475 c -25.43125,-25.43125 -25.43125,-67.175 0,-92.60625 25.4325,-25.43125 67.175,-25.43125 92.60626,0 25.4325,25.43125 25.4325,67.175 0,92.60625 -25.43126,25.43125 -67.17376,25.43125 -92.60626,0"
           inkscape:connector-curvature="0"
           sodipodi:nodetypes="cscccccccccccccccccccc" />
      </g>
      <g
         style="opacity:0.15;fill:#ffffff"
         transform="matrix(1.1519601,0,0,1.1519601,-26.076964,210.07749)"
         id="g3752">
        <path
           style="fill:#ffffff;fill-opacity:1;fill-rule:nonzero;stroke:none"
           d="m 379.45448,122.43218 c -8.34699,0 -15.10289,6.75576 -15.10289,15.10289 0,5.59125 3.70524,9.26311 3.70524,9.26311 2.10944,2.08927 3.82607,6.71936 3.82607,9.06173 0,1.07974 1.12768,1.08741 1.12768,1.08741 l 0.60412,0 4.99402,0 1.7318,0 5.31621,0 0.28192,0 c 0,0 1.08741,-0.008 1.08741,-1.08741 0,-2.34237 1.7156,-6.97246 3.82607,-9.06173 0,0 3.74551,-3.67186 3.74551,-9.26311 0,-8.34713 -6.79642,-15.10289 -15.14316,-15.10289 z m 0,1.85262 c 7.44199,0 13.49191,6.04956 13.49191,13.49192 0,4.98519 -3.30249,8.25625 -3.30249,8.25625 -1.88171,1.86281 -3.42333,6.00666 -3.42333,8.09514 0,0.9627 -0.96658,0.96659 -0.96658,0.96659 l -4.99402,0 0,-8.90064 c 1.68512,-0.72476 3.84079,-2.00176 5.03429,-4.06771 1.61473,-2.79526 1.09154,-6.38282 0.72494,-8.0146 -1.5979,0.5019 -4.95644,1.84751 -6.56472,4.63155 -1.5901,2.75582 -1.12887,6.31536 -0.76521,7.97433 l 0,8.37707 -4.99403,0 c 0,0 -0.96658,-0.004 -0.96658,-0.96659 0,-2.08848 -1.54253,-6.23233 -3.42332,-8.09514 0,0 -3.3025,-3.27106 -3.3025,-8.25625 0,-7.44236 6.0094,-13.49192 13.45164,-13.49192 z m -7.49103,13.0489 c 0,0 -0.19024,3.71816 1.97344,5.88006 1.01323,1.01406 2.3516,1.49399 3.50387,1.7318 -0.15771,-1.58471 -0.10181,-3.56653 0.60412,-5.43704 -0.0619,-0.0693 -0.13578,-0.1346 -0.20138,-0.20137 -2.16274,-2.16354 -5.88005,-1.97345 -5.88005,-1.97345 z"
           id="path3562-5"
           inkscape:connector-curvature="0" />
        <g
           id="g3646"
           transform="matrix(1.7740816,0,0,1.7740816,-294.7518,-102.74516)"
           style="fill:#ffffff;fill-opacity:1">
          <g
             style="fill:#ffffff;fill-opacity:1"
             transform="matrix(0.16508758,0,0,0.16508758,432.82445,122.98278)"
             id="g3624">
            <g
               style="fill:#ffffff;fill-opacity:1"
               id="g3548"
               transform="matrix(0.49200052,0,0,-0.49200052,-299.44061,135.69467)" />
            <g
               style="fill:#ffffff;fill-opacity:1"
               id="g3552"
               transform="matrix(0.49200052,0,0,-0.49200052,-299.44061,147.86258)">
              <path
                 inkscape:connector-curvature="0"
                 d="m 0,0 -82.44,0 c -4.533,0 -8.244,-3.711 -8.244,-8.243 0,-4.534 3.711,-8.245 8.244,-8.245 l 82.44,0 c 4.533,0 8.244,3.711 8.244,8.245 C 8.244,-3.711 4.533,0 0,0"
                 style="fill:#ffffff;fill-opacity:1;fill-rule:nonzero;stroke:none"
                 id="path3554" />
            </g>
            <g
               style="fill:#ffffff;fill-opacity:1"
               id="g3556"
               transform="matrix(0.49200052,0,0,-0.49200052,-311.60803,160.03094)">
              <path
                 inkscape:connector-curvature="0"
                 d="m 0,0 -32.978,0 c -4.532,0 -8.243,-3.711 -8.243,-8.244 0,-4.533 3.711,-8.243 8.243,-8.243 l 32.978,0 c 4.53,0 8.242,3.71 8.242,8.243 C 8.242,-3.711 4.53,0 0,0"
                 style="fill:#ffffff;fill-opacity:1;fill-rule:nonzero;stroke:none"
                 id="path3558" />
            </g>
            <g
               style="fill:#ffffff;fill-opacity:1"
               id="g3560"
               transform="matrix(0.49200052,0,0,-0.49200052,-351.314,54.413236)" />
            <g
               style="fill:#ffffff;fill-opacity:1"
               id="g3564"
               transform="matrix(0.49200052,0,0,-0.49200052,-319.63763,84.367113)" />
          </g>
          <g
             id="g3641"
             style="fill:#ffffff;fill-opacity:1" />
        </g>
      </g>
    </g>
  </g>
</svg>
